<?xml version="1.0" encoding="UTF-8"?>
<svg version="1.1" xmlns="http://www.w3.org/2000/svg" width="1200" height="1200">
<path d="M0 0 C1.04305298 0.14918884 1.04305298 0.14918884 2.10717773 0.3013916 C91.12679436 13.09950269 174.53380056 48.06226 293.12890625 151.84765625 C295.33079829 154.38052162 297.60195826 156.84332522 299.875 159.3125 C304.31783768 164.19561889 308.57584137 169.18366587 312.68505859 174.35058594 C313.61847655 175.52143104 314.55681881 176.68835795 315.49853516 177.85253906 C344.15390942 213.32732051 368.38857378 254.49498937 385 297 C385.57548584 298.46566406 385.57548584 298.46566406 386.16259766 299.9609375 C400.81740467 337.59991867 410.23629699 376.10217689 416 416 C416.27336182 417.87945313 416.27336182 417.87945313 416.55224609 419.796875 C421.82249402 458.2251106 421.56330292 499.6221349 416 538 C415.90054077 538.69536865 415.80108154 539.3907373 415.6986084 540.10717773 C404.43108146 618.48053469 376.40165983 694.09673845 329 758 C328.26523437 758.99773438 327.53046875 759.99546875 326.7734375 761.0234375 C318.91493673 771.60325656 310.95172979 782.08436601 302.02734375 791.79296875 C300.24958586 793.72829285 298.52423748 795.69403016 296.8125 797.6875 C286.6044904 809.39458794 275.9516612 821.01186772 264.15234375 831.12890625 C261.61947838 833.33079829 259.15667478 835.60195826 256.6875 837.875 C217.05490327 873.92927747 168.8661026 903.57945383 119 923 C118.02579102 923.38220703 117.05158203 923.76441406 116.04785156 924.15820312 C78.40599609 938.81541436 39.90135313 948.23578703 0 954 C-1.25296875 954.18224121 -2.5059375 954.36448242 -3.796875 954.55224609 C-42.2251106 959.82249402 -83.6221349 959.56330292 -122 954 C-122.69536865 953.90054077 -123.3907373 953.80108154 -124.10717773 953.6986084 C-200.3931346 942.73118136 -271.52831263 915.98487224 -335 872 C-335.71784668 871.50483887 -336.43569336 871.00967773 -337.17529297 870.49951172 C-344.9561682 865.11245155 -352.44416469 859.38329838 -359.84375 853.48828125 C-362.47158088 851.40003795 -365.1554218 849.40536381 -367.875 847.4375 C-368.90625 846.633125 -369.9375 845.82875 -371 845 C-371 844.34 -371 843.68 -371 843 C-371.53496094 842.7834375 -372.06992187 842.566875 -372.62109375 842.34375 C-375.85538338 840.51682778 -378.38672878 838.04116187 -381.0625 835.5 C-383.93844517 832.78869481 -386.69769724 830.20153517 -390 828 C-390 827.34 -390 826.68 -390 826 C-390.58483154 825.74041504 -391.16966309 825.48083008 -391.7722168 825.21337891 C-394.15870354 823.91356092 -395.73302211 822.51043278 -397.64453125 820.5859375 C-398.66063477 819.56693359 -398.66063477 819.56693359 -399.69726562 818.52734375 C-400.39529297 817.81707031 -401.09332031 817.10679687 -401.8125 816.375 C-402.49892578 815.68792969 -403.18535156 815.00085938 -403.89257812 814.29296875 C-407.87933387 810.27226712 -411.68761597 806.14369302 -415.38598633 801.85693359 C-416.85268905 800.16948224 -418.34770444 798.51901568 -419.87109375 796.8828125 C-420.71800781 795.97273437 -421.56492187 795.06265625 -422.4375 794.125 C-423.73494141 792.73667969 -423.73494141 792.73667969 -425.05859375 791.3203125 C-427 789 -427 789 -427 787 C-427.66 787 -428.32 787 -429 787 C-430.71106004 785.03749386 -432.30021673 783.06849911 -433.875 781 C-434.36476318 780.36408936 -434.85452637 779.72817871 -435.35913086 779.07299805 C-436.39689642 777.72203818 -437.43156946 776.36869796 -438.46337891 775.01318359 C-439.88432384 773.15155157 -441.32069556 771.30313231 -442.76171875 769.45703125 C-494.79770885 702.16167745 -526.35975244 621.98364404 -538 538 C-538.24991699 536.23994629 -538.24991699 536.23994629 -538.50488281 534.44433594 C-543.7250061 495.89323908 -543.58103261 454.5001715 -538 416 C-537.85081116 414.95694702 -537.85081116 414.95694702 -537.6986084 413.89282227 C-524.88857273 324.79026205 -489.8770151 240.28150473 -427.28686523 165.88183594 C-424.88576058 163.11971712 -424.88576058 163.11971712 -423 160 C-422.34 160 -421.68 160 -421 160 C-420.7421875 159.42765625 -420.484375 158.8553125 -420.21875 158.265625 C-418.88634058 155.78871005 -417.34943882 153.8658834 -415.5 151.75 C-414.8915625 151.04359375 -414.283125 150.3371875 -413.65625 149.609375 C-412 148 -412 148 -410 148 C-409.73590332 147.41065674 -409.47180664 146.82131348 -409.19970703 146.21411133 C-407.95422948 143.91552851 -406.65447786 142.41060483 -404.8046875 140.57421875 C-404.17546387 139.94620361 -403.54624023 139.31818848 -402.89794922 138.67114258 C-401.89658936 137.6892395 -401.89658936 137.6892395 -400.875 136.6875 C-400.19066895 136.01033936 -399.50633789 135.33317871 -398.80126953 134.63549805 C-394.99799534 130.89333335 -391.15798102 127.23814486 -387.078125 123.796875 C-384.77402292 121.80460628 -382.55409367 119.73602254 -380.32983398 117.65551758 C-374.42502777 112.13799495 -368.38928932 106.95495907 -362 102 C-360.73989234 100.98821473 -359.4808706 99.97507625 -358.22265625 98.9609375 C-345.99320464 89.17991637 -333.14185362 80.50148052 -320 72 C-319.14631836 71.43958008 -318.29263672 70.87916016 -317.41308594 70.30175781 C-254.11605642 28.83476715 -179.03044289 4.98238544 -104 -2 C-103.04689941 -2.09571289 -102.09379883 -2.19142578 -101.11181641 -2.29003906 C-67.98696849 -5.17585719 -32.93221772 -4.77389513 0 0 Z M-171 22 C-172.03995117 22.24943359 -173.07990234 22.49886719 -174.15136719 22.75585938 C-201.61040799 29.43810327 -228.6225209 38.71361624 -254.21679688 50.69726562 C-256.93294324 51.96861273 -259.66021902 53.21275769 -262.390625 54.453125 C-304.56559006 73.82584423 -343.18306242 100.87203249 -377.1640625 132.3828125 C-379.76994211 134.78768763 -382.40906907 137.14790507 -385.0625 139.5 C-392.53743799 146.21783012 -399.68542135 153.27725213 -406.20703125 160.9296875 C-408.33146824 163.3827411 -410.54188637 165.74703147 -412.75 168.125 C-417.99523219 173.88447064 -422.79497195 179.92612836 -427.53613281 186.10351562 C-429.01786728 188.0231476 -430.51879597 189.92641194 -432.0234375 191.828125 C-466.64958204 235.90218323 -491.41607192 286.2748545 -508.4375 339.5 C-508.67259277 340.23484619 -508.90768555 340.96969238 -509.14990234 341.72680664 C-510.71855918 346.76825343 -511.90690702 351.83450016 -513 357 C-509.04 357 -505.08 357 -501 357 C-500.63201294 355.76588379 -500.63201294 355.76588379 -500.2565918 354.50683594 C-488.84920334 316.50503481 -474.33357423 280.19678839 -454 246 C-453.51789063 245.18321777 -453.03578125 244.36643555 -452.5390625 243.52490234 C-438.60323605 219.98894683 -422.37338088 198.28653633 -404.625 177.5 C-404.11259766 176.89978027 -403.60019531 176.29956055 -403.07226562 175.68115234 C-399.26740799 171.25099441 -399.26740799 171.25099441 -397.33740234 169.43945312 C-395.77311308 168.0832769 -395.77311308 168.0832769 -396 166 C-395.01 165.67 -394.02 165.34 -393 165 C-391.52374797 163.54373428 -391.52374797 163.54373428 -390.0625 161.6875 C-383.34449438 153.77391711 -375.87516115 146.41509606 -367.96875 139.69140625 C-365.72218493 137.76132158 -363.55416096 135.75581861 -361.375 133.75 C-355.72815103 128.65659412 -349.77709712 124.00033413 -343.75830078 119.35986328 C-342.09088342 118.0702889 -340.43289227 116.76960158 -338.77734375 115.46484375 C-313.27689783 95.45728793 -285.21704928 78.95162454 -256 65 C-255.21286621 64.62166016 -254.42573242 64.24332031 -253.61474609 63.85351562 C-211.74132739 43.86243893 -166.891715 31.39720896 -121 25 C-119.83597656 24.83483887 -118.67195313 24.66967773 -117.47265625 24.49951172 C-79.51826703 19.38497794 -38.90244929 19.51496216 -1 25 C0.0172818 25.14565399 0.0172818 25.14565399 1.05511475 25.29425049 C49.77800711 32.32235455 98.12968296 45.92248287 141.8515625 68.88085938 C144.33841163 70.17628169 146.84070121 71.43929629 149.34375 72.703125 C178.18691869 87.36872939 205.44141199 105.25390753 229.96484375 126.40234375 C232.89289649 128.90833483 235.87168156 131.33508681 238.875 133.75 C242.58743415 136.76937481 246.018026 139.89632479 249.33984375 143.3359375 C251.07270705 145.07287813 252.88313833 146.65845328 254.75 148.25 C262.08717718 154.58989096 268.91905335 161.55139515 275.20703125 168.9296875 C277.33146824 171.3827411 279.54188637 173.74703147 281.75 176.125 C286.9232421 181.79988982 291.67402019 187.75497437 296.34301758 193.84814453 C297.62835986 195.51736612 298.92465249 197.17815842 300.2253418 198.83544922 C306.4453829 206.78752742 312.23006246 214.96489272 317.8125 223.375 C318.24276489 224.02108215 318.67302979 224.66716431 319.11633301 225.33282471 C329.91807829 241.59029408 339.61059116 258.43063386 348.05078125 276.03662109 C349.03503083 278.07245831 350.0472724 280.09273301 351.0625 282.11328125 C362.94765809 306.08222021 371.45979599 331.38996366 379 357 C382.96 357 386.92 357 391 357 C388.49006132 346.34309048 385.54009827 335.96697597 381.9375 325.625 C381.7014505 324.94222992 381.465401 324.25945984 381.22219849 323.55599976 C376.43972601 309.76547698 370.99243722 296.31159694 365 283 C364.58927246 282.0821875 364.17854492 281.164375 363.75537109 280.21875 C347.40078864 243.96598246 325.50634013 210.25088594 300.17578125 179.65625 C297.2565639 176.09239399 294.43902021 172.4510909 291.62890625 168.80078125 C291.09136719 168.20652344 290.55382812 167.61226562 290 167 C289.34 167 288.68 167 288 167 C287.7421875 166.42765625 287.484375 165.8553125 287.21875 165.265625 C285.88634058 162.78871005 284.34943882 160.8658834 282.5 158.75 C281.8915625 158.04359375 281.283125 157.3371875 280.65625 156.609375 C279.14583632 154.76770496 279.14583632 154.76770496 277 155 C277 154.34 277 153.68 277 153 C276.34 153 275.68 153 275 153 C275 152.34 275 151.68 275 151 C274.34 151 273.68 151 273 151 C272.731875 150.401875 272.46375 149.80375 272.1875 149.1875 C271.00082594 147.00152146 269.90400887 145.58667406 268 144 C267.34 144 266.68 144 266 144 C266 143.34 266 142.68 266 142 C265.34 142 264.68 142 264 142 C264 141.34 264 140.68 264 140 C263.34 140 262.68 140 262 140 C262 139.34 262 138.68 262 138 C260.31477271 136.29515534 260.31477271 136.29515534 258.1875 134.5625 C254.14805038 131.15582391 254.14805038 131.15582391 252.36328125 129.27734375 C251.06812114 127.77208919 251.06812114 127.77208919 249 128 C249 127.34 249 126.68 249 126 C245.94441577 122.97482091 245.94441577 122.97482091 242 122 C242 121.34 242 120.68 242 120 C240.0581695 118.31051514 238.10889501 116.74239918 236.0625 115.1875 C235.43134277 114.70176514 234.80018555 114.21603027 234.14990234 113.71557617 C232.79299582 112.67227393 231.43420167 111.63142305 230.07373047 110.59277344 C228.07841716 109.06022999 226.10177063 107.50660086 224.12890625 105.9453125 C204.93601968 90.85602751 184.31949161 77.85681054 163 66 C162.07429199 65.4848584 161.14858398 64.9697168 160.19482422 64.43896484 C135.88676551 51.04911464 110.39600738 40.50192524 84 32 C83.0517334 31.68869141 82.1034668 31.37738281 81.12646484 31.05664062 C38.9114265 17.25712644 -5.62206314 10.02667292 -50 9 C-51.19375244 8.96712891 -51.19375244 8.96712891 -52.41162109 8.93359375 C-92.18711969 7.95490607 -132.38162137 12.58771903 -171 22 Z M-363.15625 142.3671875 C-365.3321029 144.38164472 -367.53137259 146.32838989 -369.77734375 148.26171875 C-374.40349395 152.29253203 -378.73628372 156.58926735 -383.0625 160.9375 C-383.82626953 161.69740234 -384.59003906 162.45730469 -385.37695312 163.24023438 C-390.12572904 167.9971348 -394.62947682 172.89536289 -399 178 C-399.94944858 179.08297224 -400.89991784 180.16505077 -401.8515625 181.24609375 C-441.45955537 226.65761071 -470.85834233 279.97628136 -490 337 C-490.30083496 337.89541504 -490.60166992 338.79083008 -490.91162109 339.71337891 C-493.90937896 348.17607846 -493.90937896 348.17607846 -495 357 C-488.73 357 -482.46 357 -476 357 C-475.28457031 354.74929688 -474.56914062 352.49859375 -473.83203125 350.1796875 C-456.75544379 297.01506626 -431.68855385 247.25496689 -395.6953125 204.24609375 C-393.79918657 202.20295795 -393.79918657 202.20295795 -394 200 C-393.34 200 -392.68 200 -392 200 C-389.60179695 197.36315253 -389.60179695 197.36315253 -389 194 C-388.34 194 -387.68 194 -387 194 C-385.18932626 192.28668011 -385.18932626 192.28668011 -383.375 190.125 C-382.42753906 189.04605469 -382.42753906 189.04605469 -381.4609375 187.9453125 C-379.79982877 186.13893067 -379.79982877 186.13893067 -380 184 C-379.34 184 -378.68 184 -378 184 C-376.70411953 182.71768919 -376.70411953 182.71768919 -375.3125 180.9375 C-367.06165934 171.23062864 -357.75289732 162.18739535 -348 154 C-347.01257813 153.13503906 -346.02515625 152.27007812 -345.0078125 151.37890625 C-276.84282708 91.75929887 -190.96225642 55.81474559 -101 47 C-100.10748535 46.90428711 -99.2149707 46.80857422 -98.29541016 46.70996094 C-86.27806388 45.58276658 -74.18349354 45.75605222 -62.125 45.75 C-60.31588135 45.74898788 -60.31588135 45.74898788 -58.47021484 45.74795532 C-39.78645123 45.76454643 -21.51790169 46.33924648 -3 49 C-1.79230957 49.16628906 -0.58461914 49.33257812 0.65966797 49.50390625 C69.41688915 59.19181217 136.04705398 85.81622044 192 127 C192.67611328 127.49209961 193.35222656 127.98419922 194.04882812 128.49121094 C203.23954155 135.18605764 212.02442902 142.22760655 220.56201172 149.73681641 C221.76550206 150.79400809 222.97745679 151.8415537 224.19140625 152.88671875 C236.14486302 163.1931439 247.97678972 173.95331804 258.23828125 185.9609375 C260.19605739 188.2269223 262.22228948 190.42143494 264.25 192.625 C269.34943853 198.27853712 274.00829093 204.2371607 278.65332031 210.26367188 C279.8983024 211.86887721 281.16315465 213.45861837 282.4296875 215.046875 C293.82495568 229.46842752 303.91105025 245.03098383 313 261 C313.66781494 262.16740723 313.66781494 262.16740723 314.34912109 263.35839844 C331.23422951 293.06294155 344.11197258 324.32367099 354 357 C360.27 357 366.54 357 373 357 C372.2634322 351.84402543 371.33969486 347.371511 369.734375 342.49609375 C369.50489166 341.78824234 369.27540833 341.08039093 369.03897095 340.35108948 C368.2852373 338.04338636 367.5194994 335.73999159 366.75 333.4375 C366.48600403 332.64432373 366.22200806 331.85114746 365.95001221 331.03393555 C360.55570741 314.91688915 354.17959837 299.40060205 347 284 C346.56478027 283.06317383 346.12956055 282.12634766 345.68115234 281.16113281 C332.44226448 252.98323831 315.43129674 226.38873829 296.38476562 201.79931641 C294.94194482 199.92456511 293.52379036 198.03297317 292.109375 196.13671875 C291.19812628 194.92432159 290.28667735 193.71207488 289.375 192.5 C288.96072754 191.94094971 288.54645508 191.38189941 288.11962891 190.8059082 C287.12710117 189.49989562 286.06928509 188.24394919 285 187 C284.34 187 283.68 187 283 187 C282.7628125 186.44441406 282.525625 185.88882813 282.28125 185.31640625 C280.6992626 182.45628879 278.72337285 180.33051331 276.5 177.9375 C274.09463269 175.34079665 271.96595796 172.94893694 270 170 C269.34 170 268.68 170 268 170 C267.63068359 169.14390137 267.63068359 169.14390137 267.25390625 168.27050781 C265.79101003 165.6215719 264.07354681 163.81451454 261.9375 161.671875 C261.14085937 160.87265625 260.34421875 160.0734375 259.5234375 159.25 C258.27433594 158.0125 258.27433594 158.0125 257 156.75 C256.16726563 155.90953125 255.33453125 155.0690625 254.4765625 154.203125 C253.67992187 153.4090625 252.88328125 152.615 252.0625 151.796875 C251.33160156 151.06823242 250.60070312 150.33958984 249.84765625 149.58886719 C248.15340858 147.78266279 248.15340858 147.78266279 246 148 C246 147.34 246 146.68 246 146 C244.28668011 144.18932626 244.28668011 144.18932626 242.125 142.375 C241.40570312 141.74335938 240.68640625 141.11171875 239.9453125 140.4609375 C238.13893067 138.79982877 238.13893067 138.79982877 236 139 C236 138.34 236 137.68 236 137 C234.03648244 135.13506805 234.03648244 135.13506805 231.4375 133.125 C230.42816406 132.31933594 229.41882813 131.51367188 228.37890625 130.68359375 C227.55543701 130.03173096 227.55543701 130.03173096 226.71533203 129.36669922 C224.9736893 127.97903682 223.24920651 126.57226592 221.52734375 125.16015625 C203.48985941 110.43263823 184.09812267 97.71894973 164 86 C163.01966797 85.42644775 163.01966797 85.42644775 162.01953125 84.84130859 C71.110809 32.02369264 -36.80812962 15.30337482 -363.15625 142.3671875 Z M-306 136 C-307.55460937 137.13115234 -307.55460937 137.13115234 -309.140625 138.28515625 C-321.39246809 147.31024388 -333.10449162 156.93949072 -344.18359375 167.3671875 C-346.43589 169.47266277 -348.7145241 171.50397942 -351.0625 173.5 C-358.66559056 180.08827127 -365.79354888 187.37018519 -372.30859375 195.03125 C-374.23867842 197.27781507 -376.24418139 199.44583904 -378.25 201.625 C-383.83311892 207.82951158 -388.94766125 214.36361573 -394 221 C-394.82274414 222.07797852 -394.82274414 222.07797852 -395.66210938 223.17773438 C-425.95490064 263.05468559 -449.80086161 308.60315922 -463 357 C-197.68 357 67.64 357 341 357 C329.48580585 314.78128811 309.87654358 274.91842928 285 239 C284.58508301 238.39961914 284.17016602 237.79923828 283.74267578 237.18066406 C278.16950999 229.15410541 272.30850788 221.4697755 266 214 C265.07933053 212.90372691 264.15876197 211.80736908 263.23828125 210.7109375 C258.69798658 205.31560697 254.1284107 199.94914101 249.4375 194.68359375 C248 193 248 193 246.4375 190.78515625 C245.963125 190.19605469 245.48875 189.60695313 245 189 C244.34 189 243.68 189 243 189 C243 188.34 243 187.68 243 187 C242.34 187 241.68 187 241 187 C240.773125 186.44828125 240.54625 185.8965625 240.3125 185.328125 C238.61274074 182.31307583 236.45195184 180.18769631 234 177.75 C233.113125 176.85796875 232.22625 175.9659375 231.3125 175.046875 C229.26510897 172.77906927 229.26510897 172.77906927 227 173 C227 172.34 227 171.68 227 171 C225.55316948 169.49726114 225.55316948 169.49726114 223.625 167.9375 C220.47821792 165.26933688 217.40792312 162.54691752 214.375 159.75 C208.17048842 154.16688108 201.63638427 149.05233875 195 144 C194.28134766 143.45150391 193.56269531 142.90300781 192.82226562 142.33789062 C122.68928243 89.06090339 37.04179934 59.18150236 -51 57 C-51.72751465 56.97808594 -52.4550293 56.95617187 -53.20458984 56.93359375 C-142.46670184 54.50193576 -234.22042209 82.88072765 -306 136 Z M-516 369 C-518.52381932 379.0952773 -520.89024508 388.90163188 -522.5625 399.125 C-522.77229492 400.40052734 -522.98208984 401.67605469 -523.19824219 402.99023438 C-526.60142348 424.16363045 -528.49222974 445.56363211 -529 467 C-529.02191406 467.76731445 -529.04382813 468.53462891 -529.06640625 469.32519531 C-530.61562219 528.6747964 -530.61562219 528.6747964 -516 585 C-215.7 585 84.6 585 394 585 C396.52381212 574.90475154 398.89035833 565.0983737 400.5625 554.875 C400.77229492 553.59874756 400.98208984 552.32249512 401.19824219 551.00756836 C404.65496526 529.49063339 406.48386715 507.7808061 407 486 C407.02191406 485.28714844 407.04382812 484.57429688 407.06640625 483.83984375 C408.03440006 450.34725779 409.20864408 399.41728816 394 369 C93.7 369 -206.6 369 -516 369 Z M-513 597 C-510.49007283 607.65686064 -507.54047697 618.03318663 -503.9375 628.375 C-503.70111816 629.05843475 -503.46473633 629.74186951 -503.22119141 630.4460144 C-498.43687458 644.23499081 -493.00960069 657.69640219 -487 671 C-486.55688477 671.98258789 -486.11376953 672.96517578 -485.65722656 673.97753906 C-465.51943787 718.2100669 -437.76031146 758.22229144 -405 794 C-404.53980469 794.5053125 -404.07960938 795.010625 -403.60546875 795.53125 C-395.1569125 804.80459934 -386.6573815 814.01175792 -377.10546875 822.171875 C-374.64272972 824.3102087 -372.26512657 826.53084599 -369.875 828.75 C-364.11552936 833.99523219 -358.07387164 838.79497195 -351.89648438 843.53613281 C-349.9768524 845.01786728 -348.07358806 846.51879597 -346.171875 848.0234375 C-269.57589241 908.19459844 -174.89867046 940.44574472 -70 945 C-69.05302246 945.03609375 -68.10604492 945.0721875 -67.13037109 945.109375 C-61.74148347 945.28480166 -56.38706953 945.20344633 -51 945 C-49.81841309 944.95891113 -48.63682617 944.91782227 -47.41943359 944.87548828 C50.9127639 941.26201205 146.76334813 908.41958845 255.16796875 821.62109375 C257.19795423 819.74230719 259.21124307 818.00791977 261.36328125 816.28515625 C262.23339844 815.53105469 263.10351562 814.77695312 264 814 C264 813.34 264 812.68 264 812 C264.53625 811.79375 265.0725 811.5875 265.625 811.375 C268.91978009 809.46749574 271.59363628 806.95180616 274 804 C274 803.34 274 802.68 274 802 C274.99 801.67 275.98 801.34 277 801 C278.47813315 799.58022952 278.47813315 799.58022952 279.9375 797.75 C282.67098066 794.5184699 285.47861068 791.38736384 288.37084961 788.29907227 C293.88336411 782.4085764 299.05543977 776.37952001 304 770 C305.03532153 768.70481963 306.07188978 767.41063533 307.109375 766.1171875 C323.79980388 745.17201114 338.06692608 722.42644907 350.92480469 698.95361328 C351.97042268 697.05374154 353.03516653 695.16560861 354.1015625 693.27734375 C368.22937421 667.85957898 391 626.08248333 391 597 C387.04 597 383.08 597 379 597 C378.72438232 597.91885986 378.44876465 598.83771973 378.16479492 599.78442383 C372.07943308 619.9829137 365.49853036 639.66327479 357 659 C356.52449707 660.09103027 356.04899414 661.18206055 355.55908203 662.30615234 C348.62746118 678.10320741 340.74950472 693.14085121 332 708 C331.21130606 709.36534659 330.42345631 710.73118142 329.63671875 712.09765625 C321.13489311 726.72148615 311.35205436 740.63313682 301 754 C300.38656738 754.80050781 300.38656738 754.80050781 299.76074219 755.6171875 C284.08095246 776.06806276 266.76086801 796.29261425 247.17578125 813.1015625 C244.69347802 815.26745005 242.28944855 817.50876957 239.875 819.75 C234.19999341 824.92334855 228.24488399 829.67444033 222.15136719 834.34326172 C220.48360867 835.62757961 218.82447701 836.92310386 217.16894531 838.22314453 C209.17964231 844.47506771 200.95428728 850.27106033 192.5 855.875 C191.84969818 856.30754089 191.19939636 856.74008179 190.52938843 857.18572998 C179.29542397 864.64440335 167.86387171 871.58240143 156 878 C154.45694788 878.85271374 152.91397838 879.70557701 151.37109375 880.55859375 C104.39760516 906.21124109 51.83935112 921.63430511 -1 929 C-2.16402344 929.16516113 -3.32804687 929.33032227 -4.52734375 929.50048828 C-42.48173297 934.61502206 -83.09755071 934.48503784 -121 929 C-121.67818787 928.90289734 -122.35637573 928.80579468 -123.05511475 928.70574951 C-166.12859599 922.49255292 -208.2988518 910.98476042 -248 893 C-248.94552734 892.57396484 -249.89105469 892.14792969 -250.86523438 891.70898438 C-279.47386227 878.70506261 -307.50695149 862.78913278 -332.2578125 843.36132812 C-333.96115217 842.03035531 -335.6798118 840.72269823 -337.40625 839.421875 C-347.79853435 831.57213921 -357.73581321 823.21118592 -367.29296875 814.36328125 C-368.89636341 812.79198645 -368.89636341 812.79198645 -371 813 C-371 812.34 -371 811.68 -371 811 C-371.66 811 -372.32 811 -373 811 C-373 810.34 -373 809.68 -373 809 C-374.38292019 807.60177029 -374.38292019 807.60177029 -376.25 806.125 C-380.15567138 802.80833472 -383.81521217 799.30653623 -387.4375 795.6875 C-387.96956055 795.15979004 -388.50162109 794.63208008 -389.04980469 794.08837891 C-392.87543516 790.24912969 -392.87543516 790.24912969 -394 788 C-394.66 788 -395.32 788 -396 788 C-396.34224609 787.17628906 -396.34224609 787.17628906 -396.69140625 786.3359375 C-398.3835565 783.31532302 -400.54620942 781.12950807 -402.9375 778.625 C-408.48108048 772.69872658 -413.52729051 766.49138784 -418.44433594 760.04003906 C-419.53737575 758.60666795 -420.63477427 757.17661525 -421.73535156 755.74902344 C-435.15865033 738.3251673 -447.18975817 720.15339967 -458 701 C-458.49999512 700.11892578 -458.99999023 699.23785156 -459.51513672 698.33007812 C-477.62596035 666.23829336 -490.50712079 632.22971521 -501 597 C-504.96 597 -508.92 597 -513 597 Z M-495 597 C-494.25016884 602.2488181 -493.27828127 606.78979727 -491.62890625 611.75 C-491.39131088 612.47676437 -491.15371552 613.20352875 -490.90892029 613.95231628 C-490.13533468 616.30448268 -489.35054943 618.65264219 -488.5625 621 C-488.15825806 622.20917587 -488.15825806 622.20917587 -487.74584961 623.44277954 C-483.20259909 636.97902717 -478.08413485 650.07492885 -472 663 C-471.54157715 663.99467285 -471.0831543 664.9893457 -470.61083984 666.01416016 C-454.13626162 701.75646844 -433.30096191 734.84020284 -408 765 C-407.17242187 766.00160156 -406.34484375 767.00320313 -405.4921875 768.03515625 C-391.64547083 784.70700232 -376.61496301 801.05201445 -360 815 C-358.51886719 816.29744141 -358.51886719 816.29744141 -357.0078125 817.62109375 C-286.64307207 879.1646879 -196.64965098 917.65570614 -30.1875 927.3125 C65.1313654 920.64030579 154.63279291 883.73367332 241.7421875 811.046875 C244 809 244 809 246 808 C246 807.34 246 806.68 246 806 C246.56678467 805.75846191 247.13356934 805.51692383 247.7175293 805.26806641 C250.45328617 803.74816896 252.3121634 801.9300479 254.51953125 799.7109375 C255.37740234 798.85113281 256.23527344 797.99132812 257.11914062 797.10546875 C258.45235352 795.75388672 258.45235352 795.75388672 259.8125 794.375 C260.68970703 793.49714844 261.56691406 792.61929688 262.47070312 791.71484375 C267.51648851 786.63509272 272.35202046 781.44425279 277 776 C277.94930529 774.91690215 278.89977612 773.83482446 279.8515625 772.75390625 C319.4195152 727.3932843 348.70401654 674.40753418 367.75 617.4375 C368.0167453 616.64293396 368.2834906 615.84836792 368.55831909 615.02972412 C369.31279228 612.77114298 370.05714766 610.50954236 370.796875 608.24609375 C371.02123734 607.57135513 371.24559967 606.89661652 371.47676086 606.20143127 C372.53414883 602.91434249 373 600.50420398 373 597 C366.73 597 360.46 597 354 597 C353.28457031 599.25070312 352.56914063 601.50140625 351.83203125 603.8203125 C335.08153148 655.96972337 310.61566683 704.30913872 276 747 C275.24332031 747.95003906 274.48664062 748.90007812 273.70703125 749.87890625 C268.91949322 755.83578985 263.88159168 761.50176449 258.68359375 767.09765625 C256.27463475 769.70297872 253.91368777 772.34269014 251.5625 775 C244.49007154 782.87092844 237.03314592 790.45055214 228.96875 797.30859375 C226.72218493 799.23867842 224.55416096 801.24418139 222.375 803.25 C199.32396673 823.99243206 173.09362356 841.08145041 146 856 C145.10039551 856.4964502 144.20079102 856.99290039 143.27392578 857.50439453 C97.93641741 882.32726638 48.14060972 897.95835767 -3 905 C-4.70905518 905.24556641 -4.70905518 905.24556641 -6.45263672 905.49609375 C-43.10596812 910.56400188 -82.38508633 910.38699783 -119 905 C-120.20720703 904.82307617 -121.41441406 904.64615234 -122.65820312 904.46386719 C-206.76596643 891.72226725 -286.26956635 855.77003867 -349.31640625 798.33984375 C-351.11401242 796.90926621 -352.91551657 795.95329767 -355 795 C-355 794.34 -355 793.68 -355 793 C-356.38292019 791.60177029 -356.38292019 791.60177029 -358.25 790.125 C-362.15567138 786.80833472 -365.81521217 783.30653623 -369.4375 779.6875 C-369.96956055 779.15979004 -370.50162109 778.63208008 -371.04980469 778.08837891 C-374.87543516 774.24912969 -374.87543516 774.24912969 -376 772 C-376.66 772 -377.32 772 -378 772 C-378.268125 771.41734375 -378.53625 770.8346875 -378.8125 770.234375 C-380.01480991 767.97213399 -381.33825913 766.19423682 -383 764.25 C-383.7734375 763.32960938 -383.7734375 763.32960938 -384.5625 762.390625 C-385.90623252 760.76823624 -385.90623252 760.76823624 -388 761 C-388.2774707 760.40646729 -388.55494141 759.81293457 -388.84082031 759.20141602 C-389.92587908 757.14076417 -391.05230181 755.55194649 -392.546875 753.77734375 C-393.30859009 752.86154541 -393.30859009 752.86154541 -394.08569336 751.92724609 C-394.90952515 750.94232178 -394.90952515 750.94232178 -395.75 749.9375 C-432.87718152 704.76133259 -459.03140665 652.81646179 -476 597 C-482.27 597 -488.54 597 -495 597 Z M-463 597 C-460.66157248 606.60154982 -460.66157248 606.60154982 -457.6171875 615.8125 C-457.17697266 616.97966553 -456.73675781 618.14683105 -456.28320312 619.34936523 C-455.81849609 620.55407471 -455.35378906 621.75878418 -454.875 623 C-454.63289795 623.63173126 -454.3907959 624.26346252 -454.14135742 624.91433716 C-449.83555705 636.13662045 -445.19666674 647.15938584 -440 658 C-439.58282715 658.87672363 -439.1656543 659.75344727 -438.73583984 660.65673828 C-426.2163651 686.81358084 -410.7430769 711.08736791 -393 734 C-392.30390625 734.89976562 -391.6078125 735.79953125 -390.890625 736.7265625 C-376.30122443 755.23460372 -360.29333981 773.72522299 -342.3125 789.0234375 C-340.47816646 790.59129691 -338.67288617 792.18014655 -336.875 793.7890625 C-263.23659815 859.29192148 -166.04021349 894.84163751 -68 897 C-66.75992187 897.02964844 -65.51984375 897.05929687 -64.2421875 897.08984375 C-60.82332687 897.12691573 -57.41818855 897.08172384 -54 897 C-53.18756836 896.98211426 -52.37513672 896.96422852 -51.53808594 896.94580078 C48.03910151 894.50884568 145.60527497 856.95001239 221.85546875 786.8984375 C224 785 224 785 226 784 C226 783.34 226 782.68 226 782 C226.58483154 781.74041504 227.16966309 781.48083008 227.7722168 781.21337891 C230.15870354 779.91356092 231.73302211 778.51043278 233.64453125 776.5859375 C234.32193359 775.90660156 234.99933594 775.22726562 235.69726562 774.52734375 C236.74430664 773.46193359 236.74430664 773.46193359 237.8125 772.375 C238.84213867 771.34439453 238.84213867 771.34439453 239.89257812 770.29296875 C248.35889698 763.04661346 248.35889698 763.04661346 253 754 C253.66 754 254.32 754 255 754 C256.86493195 752.03648244 256.86493195 752.03648244 258.875 749.4375 C259.68324219 748.42429687 260.49148438 747.41109375 261.32421875 746.3671875 C261.75911621 745.81772461 262.19401367 745.26826172 262.64208984 744.70214844 C264.00143469 742.9982016 265.38212397 741.31396105 266.76953125 739.6328125 C286.81497341 715.21443758 302.90966792 688.21855595 317 660 C317.5576001 658.89664307 317.5576001 658.89664307 318.12646484 657.77099609 C333.75698372 628.48498277 333.75698372 628.48498277 341 597 C75.68 597 -189.64 597 -463 597 Z " fill="#C8B172" transform="translate(661,123)"/>
<path d="M0 0 C0.87198029 -0.00700928 1.74396057 -0.01401855 2.6423645 -0.02124023 C5.52361939 -0.03883994 8.40389144 -0.02719053 11.28515625 -0.01367188 C13.28768095 -0.01636622 15.29020439 -0.02024816 17.29272461 -0.02526855 C21.48922178 -0.03116628 25.68537836 -0.02259171 29.88183594 -0.00390625 C35.26241669 0.01888334 40.64219938 0.00576174 46.02275085 -0.01819611 C50.15773538 -0.03264659 54.29253054 -0.02805151 58.42752075 -0.01768494 C60.41146946 -0.01501558 62.39543534 -0.01829472 64.37936401 -0.02760315 C67.15181046 -0.03775633 69.92296253 -0.0222851 72.6953125 0 C73.92666428 -0.01214539 73.92666428 -0.01214539 75.18289185 -0.02453613 C78.79343543 0.02926153 80.90166041 0.17804566 83.81811523 2.39831543 C93.45442218 15.7499455 93.52943185 40.08553134 94.66015625 55.76757812 C94.74861816 56.96833984 94.83708008 58.16910156 94.92822266 59.40625 C95.96640782 75.91592629 93.87785659 89.32688131 83.34765625 102.51757812 C82.54521484 103.56558594 82.54521484 103.56558594 81.7265625 104.63476562 C73.74418888 114.47395037 61.67287828 122.36461435 49.34765625 125.51757812 C47.69765625 125.51757812 46.04765625 125.51757812 44.34765625 125.51757812 C44.34765625 140.36757813 44.34765625 155.21757812 44.34765625 170.51757812 C45.99765625 171.17757812 47.64765625 171.83757812 49.34765625 172.51757812 C51.49855664 173.63285981 53.64392661 174.75884035 55.78515625 175.89257812 C63.47951532 179.84841767 71.43516779 182.25902392 79.8984375 184.06054688 C83.03756656 184.73198764 85.00605168 185.1866487 87.34765625 187.45507812 C88.34765625 189.51757812 88.34765625 189.51757812 88.34765625 192.51757812 C54.02765625 192.51757812 19.70765625 192.51757812 -15.65234375 192.51757812 C-14.65234375 187.51757812 -14.65234375 187.51757812 -13.08984375 185.82226562 C-9.75960334 184.0397331 -6.32009248 183.37790853 -2.65234375 182.64257812 C7.32159613 180.46267383 16.34560043 177.24894551 24.82421875 171.43554688 C26.34765625 170.51757812 26.34765625 170.51757812 28.34765625 170.51757812 C28.34765625 155.66757812 28.34765625 140.81757813 28.34765625 125.51757812 C25.37765625 125.18757813 22.40765625 124.85757813 19.34765625 124.51757812 C16.52083921 123.40315987 14.00556095 122.3032768 11.34765625 120.89257812 C10.30738281 120.35298462 10.30738281 120.35298462 9.24609375 119.80249023 C-5.45878471 111.98363925 -14.78886431 101.16942673 -20.76953125 85.61132812 C-27.35952895 62.51717689 -21.86802714 26.46882397 -12.65234375 4.51757812 C-9.246202 -0.23715655 -5.42811447 -0.05353998 0 0 Z M0.34765625 15.51757812 C-3.1414127 29.27524599 -3.1414127 29.27524599 -5.40234375 43.14257812 C-5.52158203 44.1496582 -5.64082031 45.15673828 -5.76367188 46.19433594 C-8.61434434 70.38669614 -8.61434434 70.38669614 0.33203125 92.20898438 C7.6962585 100.97032566 16.97939 108.04779504 28.34765625 110.51757812 C30.59028765 110.19096618 30.59028765 110.19096618 32.34765625 109.51757812 C31.27837891 108.98970703 31.27837891 108.98970703 30.1875 108.45117188 C18.47066729 102.41140481 11.90906492 95.30907549 7.69921875 82.55273438 C6.10696469 73.33535253 7.41620989 63.63274348 8.66015625 54.45507812 C8.7777832 53.58254395 8.89541016 52.71000977 9.01660156 51.81103516 C10.10814758 44.26094257 11.73915637 37.02391089 13.34765625 29.51757812 C33.80765625 29.51757812 54.26765625 29.51757812 75.34765625 29.51757812 C74.35765625 24.89757812 73.36765625 20.27757812 72.34765625 15.51757812 C48.58765625 15.51757812 24.82765625 15.51757812 0.34765625 15.51757812 Z " fill="#C8B272" transform="translate(563.65234375,239.482421875)"/>
<path d="M0 0 C0.66 0 1.32 0 2 0 C2.17200928 0.70608398 2.34401855 1.41216797 2.52124023 2.13964844 C4.56542883 9.84988412 6.75276735 17.83346639 12 24 C19.59055961 27.96557676 28.58441732 28.05385973 37 28 C35.65644038 31.03969037 34.21373854 32.96372562 31.7421875 35.171875 C31.11699219 35.75453125 30.49179687 36.3371875 29.84765625 36.9375 C28.53604216 38.14262661 27.21306629 39.33550692 25.87890625 40.515625 C22.5168499 43.68974031 21.10939642 45.14219318 20.5078125 49.859375 C20.63682244 51.24329985 20.80294784 52.62411411 21 54 C21.0707373 54.76538086 21.14147461 55.53076172 21.21435547 56.31933594 C21.437511 58.71886828 21.71165219 61.1074925 22 63.5 C22.09539063 64.32242188 22.19078125 65.14484375 22.2890625 65.9921875 C22.52197887 67.99526826 22.76040934 69.99770659 23 72 C17.69669811 70.40739257 13.00828985 68.01041032 8.2109375 65.30273438 C5.37827809 63.80217361 3.30206201 62.99596174 0.078125 63.0390625 C-3.94869724 64.2961669 -7.53059688 66.09039889 -11.25 68.0625 C-18.76153846 72 -18.76153846 72 -21 72 C-20.855625 70.7934375 -20.71125 69.586875 -20.5625 68.34375 C-20.37476098 66.72919444 -20.18727446 65.11460951 -20 63.5 C-19.90460937 62.70851563 -19.80921875 61.91703125 -19.7109375 61.1015625 C-19.52807737 59.50806706 -19.36411137 57.9122941 -19.21875 56.31494141 C-19.07966752 54.84308865 -18.89680519 53.37423488 -18.65625 51.91552734 C-18.30371271 48.71514975 -18.62299215 46.52413883 -20.50390625 43.90917969 C-22.58380729 41.70004801 -24.74523654 39.65504886 -27 37.625 C-28.50376122 36.2253844 -30.00396737 34.82193607 -31.5 33.4140625 C-32.1703125 32.8051416 -32.840625 32.1962207 -33.53125 31.56884766 C-35 30 -35 30 -35 28 C-34.29504395 28.00451172 -33.59008789 28.00902344 -32.86376953 28.01367188 C-25.07424378 27.89628672 -17.01663944 27.66574057 -10 24 C-4.31862383 17.3232621 -2.04159601 8.38058429 0 0 Z " fill="#C8B172" transform="translate(719,888)"/>
<path d="M0 0 C0.66 0 1.32 0 2 0 C2.17200928 0.70608398 2.34401855 1.41216797 2.52124023 2.13964844 C4.56542883 9.84988412 6.75276735 17.83346639 12 24 C19.59055961 27.96557676 28.58441732 28.05385973 37 28 C35.65644038 31.03969037 34.21373854 32.96372562 31.7421875 35.171875 C31.11699219 35.75453125 30.49179687 36.3371875 29.84765625 36.9375 C28.53604216 38.14262661 27.21306629 39.33550692 25.87890625 40.515625 C22.5168499 43.68974031 21.10939642 45.14219318 20.5078125 49.859375 C20.63682244 51.24329985 20.80294784 52.62411411 21 54 C21.0707373 54.76538086 21.14147461 55.53076172 21.21435547 56.31933594 C21.437511 58.71886828 21.71165219 61.1074925 22 63.5 C22.09539063 64.32242188 22.19078125 65.14484375 22.2890625 65.9921875 C22.52197887 67.99526826 22.76040934 69.99770659 23 72 C17.69669811 70.40739257 13.00828985 68.01041032 8.2109375 65.30273438 C5.37827809 63.80217361 3.30206201 62.99596174 0.078125 63.0390625 C-3.94869724 64.2961669 -7.53059688 66.09039889 -11.25 68.0625 C-18.76153846 72 -18.76153846 72 -21 72 C-20.855625 70.7934375 -20.71125 69.586875 -20.5625 68.34375 C-20.37476098 66.72919444 -20.18727446 65.11460951 -20 63.5 C-19.90460937 62.70851563 -19.80921875 61.91703125 -19.7109375 61.1015625 C-19.52807737 59.50806706 -19.36411137 57.9122941 -19.21875 56.31494141 C-19.07966752 54.84308865 -18.89680519 53.37423488 -18.65625 51.91552734 C-18.30371271 48.71514975 -18.62299215 46.52413883 -20.50390625 43.90917969 C-22.58380729 41.70004801 -24.74523654 39.65504886 -27 37.625 C-28.50376122 36.2253844 -30.00396737 34.82193607 -31.5 33.4140625 C-32.1703125 32.8051416 -32.840625 32.1962207 -33.53125 31.56884766 C-35 30 -35 30 -35 28 C-34.29504395 28.00451172 -33.59008789 28.00902344 -32.86376953 28.01367188 C-25.07424378 27.89628672 -17.01663944 27.66574057 -10 24 C-4.31862383 17.3232621 -2.04159601 8.38058429 0 0 Z " fill="#C8B172" transform="translate(599,888)"/>
<path d="M0 0 C0.66 0 1.32 0 2 0 C2.17200928 0.70608398 2.34401855 1.41216797 2.52124023 2.13964844 C4.56542883 9.84988412 6.75276735 17.83346639 12 24 C19.59055961 27.96557676 28.58441732 28.05385973 37 28 C35.65644038 31.03969037 34.21373854 32.96372562 31.7421875 35.171875 C31.11699219 35.75453125 30.49179687 36.3371875 29.84765625 36.9375 C28.53604216 38.14262661 27.21306629 39.33550692 25.87890625 40.515625 C22.5168499 43.68974031 21.10939642 45.14219318 20.5078125 49.859375 C20.63682244 51.24329985 20.80294784 52.62411411 21 54 C21.0707373 54.76538086 21.14147461 55.53076172 21.21435547 56.31933594 C21.437511 58.71886828 21.71165219 61.1074925 22 63.5 C22.09539062 64.32242188 22.19078125 65.14484375 22.2890625 65.9921875 C22.52197887 67.99526826 22.76040934 69.99770659 23 72 C17.69669811 70.40739257 13.00828985 68.01041032 8.2109375 65.30273438 C5.37827809 63.80217361 3.30206201 62.99596174 0.078125 63.0390625 C-3.94869724 64.2961669 -7.53059688 66.09039889 -11.25 68.0625 C-18.76153846 72 -18.76153846 72 -21 72 C-20.855625 70.7934375 -20.71125 69.586875 -20.5625 68.34375 C-20.37476098 66.72919444 -20.18727446 65.11460951 -20 63.5 C-19.90460938 62.70851563 -19.80921875 61.91703125 -19.7109375 61.1015625 C-19.52807737 59.50806706 -19.36411137 57.9122941 -19.21875 56.31494141 C-19.07966752 54.84308865 -18.89680519 53.37423488 -18.65625 51.91552734 C-18.30371271 48.71514975 -18.62299215 46.52413883 -20.50390625 43.90917969 C-22.58380729 41.70004801 -24.74523654 39.65504886 -27 37.625 C-28.50376122 36.2253844 -30.00396737 34.82193607 -31.5 33.4140625 C-32.1703125 32.8051416 -32.840625 32.1962207 -33.53125 31.56884766 C-35 30 -35 30 -35 28 C-34.29504395 28.00451172 -33.59008789 28.00902344 -32.86376953 28.01367188 C-25.07424378 27.89628672 -17.01663944 27.66574057 -10 24 C-4.31862383 17.3232621 -2.04159601 8.38058429 0 0 Z " fill="#C8B172" transform="translate(479,888)"/>
<path d="M0 0 C4.99874665 -0.0745169 9.99716533 -0.12877437 14.99633789 -0.16479492 C16.69463742 -0.17982126 18.39289855 -0.20024823 20.09106445 -0.22631836 C22.54127518 -0.26297449 24.99097 -0.27978789 27.44140625 -0.29296875 C28.56839684 -0.31619453 28.56839684 -0.31619453 29.71815491 -0.33988953 C35.94595188 -0.3418489 40.67608789 0.91443785 45.4375 5.1875 C47.46523108 8.83741595 47.80725056 11.96374718 47 16 C45.125 19.3125 45.125 19.3125 43 22 C42.34 22.99 41.68 23.98 41 25 C41.928125 25.433125 42.85625 25.86625 43.8125 26.3125 C47.88042321 28.46610641 49.54464728 29.63394185 51 34 C51.36617651 39.58419173 51.2546741 43.22647798 48 48 C35.90738109 58.36510192 14.7494911 54.11167093 0 53 C0 52.01 0 51.02 0 50 C3.465 49.505 3.465 49.505 7 49 C7 34.15 7 19.3 7 4 C4.69 3.67 2.38 3.34 0 3 C0 2.01 0 1.02 0 0 Z M20 5 C20 10.94 20 16.88 20 23 C26.87695403 23.16952361 26.87695403 23.16952361 32 20 C33.64849053 18.35150947 33.2102571 16.44953365 33.25 14.1875 C33.27578125 13.31480469 33.3015625 12.44210937 33.328125 11.54296875 C32.92864128 8.4469699 32.27917302 7.13149442 30 5 C27.49119384 4.51738333 27.49119384 4.51738333 24.8125 4.75 C23.224375 4.8325 21.63625 4.915 20 5 Z M20 28 C20 34.6 20 41.2 20 48 C26.53757465 48.4460995 26.53757465 48.4460995 33 48 C35.59281887 45.60238517 36.78535822 43.94738442 37.56640625 40.5 C37.55978917 36.26506996 37.35050555 33.62590276 35.25 29.875 C30.17834818 26.94904703 25.7933099 27.68168627 20 28 Z " fill="#C8B272" transform="translate(201,577)"/>
<path d="M0 0 C4.98043609 -0.07461471 9.96054089 -0.12881987 14.94140625 -0.16479492 C16.63287022 -0.17980505 18.32429578 -0.20021963 20.015625 -0.22631836 C22.45843024 -0.26304686 24.9007173 -0.27980411 27.34375 -0.29296875 C28.46299866 -0.31619453 28.46299866 -0.31619453 29.6048584 -0.33988953 C36.30840981 -0.3419988 41.68808061 1.1215655 47 5.4375 C49.84376903 9.26121647 49.51603545 13.50505709 49.46875 18.09765625 C48.66079899 23.10021957 46.89978132 25.34721748 42.8125 28.3125 C41.884375 28.869375 40.95625 29.42625 40 30 C41.82652209 32.7899821 43.6906845 35.55274342 45.5625 38.3125 C46.07619141 39.09818359 46.58988281 39.88386719 47.11914062 40.69335938 C50.58094176 45.74629893 53.11001986 48.18027095 59 50 C59 50.99 59 51.98 59 53 C52.66260403 54.27693799 46.17178621 55.4431744 40 53 C34.46985078 47.8059509 31.00531102 40.77002247 27.66479492 34.04125977 C25.79229347 31.28653598 25.79229347 31.28653598 20 31 C20 36.94 20 42.88 20 49 C23.465 49.495 23.465 49.495 27 50 C27 50.99 27 51.98 27 53 C18.09 53 9.18 53 0 53 C0 52.01 0 51.02 0 50 C3.465 49.505 3.465 49.505 7 49 C7 34.15 7 19.3 7 4 C4.69 3.67 2.38 3.34 0 3 C0 2.01 0 1.02 0 0 Z M20 5 C20 11.93 20 18.86 20 26 C26.88640166 26.08076404 26.88640166 26.08076404 33 24 C35.70556228 21.08185782 36.45120712 19.02082226 36.5 15.0625 C36.3571588 11.48088926 36.03493082 10.06022555 34.1875 6.875 C29.37700213 4.04529537 25.52665122 4.6670692 20 5 Z " fill="#C8B272" transform="translate(530,577)"/>
<path d="M0 0 C3.1698406 2.21888842 4.62878268 3.56018651 5.59741211 7.31713867 C6.02106225 10.14035963 6.20962044 12.88557459 6.31640625 15.73828125 C6.35830078 16.80498047 6.40019531 17.87167969 6.44335938 18.97070312 C6.48267578 20.07349609 6.52199219 21.17628906 6.5625 22.3125 C6.60568359 23.43462891 6.64886719 24.55675781 6.69335938 25.71289062 C6.79914787 28.47514569 6.90123672 31.2374863 7 34 C7.99 34.495 7.99 34.495 9 35 C9 35.99 9 36.98 9 38 C2.73 38 -3.54 38 -10 38 C-10 37.01 -10 36.02 -10 35 C-9.01 34.505 -9.01 34.505 -8 34 C-7.97107615 29.87501462 -7.95322733 25.75005515 -7.9375 21.625 C-7.92912109 20.449375 -7.92074219 19.27375 -7.91210938 18.0625 C-7.90888672 16.94101562 -7.90566406 15.81953125 -7.90234375 14.6640625 C-7.89710693 13.62717285 -7.89187012 12.5902832 -7.88647461 11.52197266 C-7.82859185 9.0040332 -7.82859185 9.0040332 -9 7 C-11.31 7 -13.62 7 -16 7 C-16 15.91 -16 24.82 -16 34 C-15.34 34.33 -14.68 34.66 -14 35 C-14 35.99 -14 36.98 -14 38 C-20.27 38 -26.54 38 -33 38 C-33 37.01 -33 36.02 -33 35 C-32.01 34.505 -32.01 34.505 -31 34 C-31 24.43 -31 14.86 -31 5 C-31.66 4.67 -32.32 4.34 -33 4 C-33 3.01 -33 2.02 -33 1 C-28.05 1 -23.1 1 -18 1 C-18 1.66 -18 2.32 -18 3 C-17.071875 2.505 -16.14375 2.01 -15.1875 1.5 C-10.25000185 -0.59164891 -5.26943372 -0.87010711 0 0 Z " fill="#C8B272" transform="translate(954,592)"/>
<path d="M0 0 C5.28 0 10.56 0 16 0 C16.06058594 2.07023438 16.12117187 4.14046875 16.18359375 6.2734375 C16.24616529 8.27572665 16.30876944 10.27801494 16.37231445 12.28027344 C16.41565846 13.6731259 16.45733396 15.06603131 16.49731445 16.45898438 C16.55502932 18.45976651 16.61921869 20.46035859 16.68359375 22.4609375 C16.72025146 23.66540527 16.75690918 24.86987305 16.79467773 26.11083984 C16.81052987 28.93996367 16.81052987 28.93996367 18 31 C20.31 31 22.62 31 25 31 C25 22.09 25 13.18 25 4 C24.34 3.67 23.68 3.34 23 3 C23 2.01 23 1.02 23 0 C28.28 0 33.56 0 39 0 C39.33 10.89 39.66 21.78 40 33 C40.99 33.495 40.99 33.495 42 34 C42 34.99 42 35.98 42 37 C37.05 37 32.1 37 27 37 C26.67 36.34 26.34 35.68 26 35 C25.236875 35.495 24.47375 35.99 23.6875 36.5 C18.85996878 38.46374151 14.13513412 39.13615777 9 38 C5.2144138 35.26419821 4.13436457 33.73937633 3.29296875 29.109375 C3.23293949 27.65706487 3.19868328 26.20350719 3.1875 24.75 C3.16381348 23.99509277 3.14012695 23.24018555 3.11572266 22.46240234 C3.05400842 20.30797218 3.0236654 18.15512869 3 16 C2.97292969 15.00742187 2.94585938 14.01484375 2.91796875 12.9921875 C2.85848461 9.71515228 2.95661693 7.13014921 4 4 C2.68 3.67 1.36 3.34 0 3 C0 2.01 0 1.02 0 0 Z " fill="#C8B272" transform="translate(771,593)"/>
<path d="M0 0 C0.85078125 -0.020625 1.7015625 -0.04125 2.578125 -0.0625 C7.37972869 -0.09241653 10.81411519 -0.0164727 14.625 3.25 C16.79905006 6.63742849 16.92654821 9.57137019 17.0390625 13.546875 C17.09707031 15.35478516 17.09707031 15.35478516 17.15625 17.19921875 C17.1871875 18.45347656 17.218125 19.70773437 17.25 21 C17.30800781 22.90458984 17.30800781 22.90458984 17.3671875 24.84765625 C17.46144222 27.9816257 17.54705166 31.11558949 17.625 34.25 C18.615 34.58 19.605 34.91 20.625 35.25 C20.625 36.24 20.625 37.23 20.625 38.25 C14.625 38.25 8.625 38.25 2.625 38.25 C1.635 38.745 1.635 38.745 0.625 39.25 C-4.90908203 39.82220937 -9.72008213 40.25593047 -14.5625 37.3125 C-16.95383611 33.27196658 -17.64715563 29.92612863 -17.375 25.25 C-16.18626707 21.47402481 -15.09265651 19.81657093 -12 17.375 C-6.49955654 15.66796582 -1.08854867 16.02111897 4.625 16.25 C4.31717504 14.60328588 4.00360766 12.95764424 3.6875 11.3125 C3.51347656 10.39597656 3.33945312 9.47945312 3.16015625 8.53515625 C2.84785012 6.29710156 2.84785012 6.29710156 1.625 5.25 C-0.06641656 5.33963062 -1.75459602 5.49577676 -3.4375 5.6875 C-4.35660156 5.78933594 -5.27570312 5.89117188 -6.22265625 5.99609375 C-7.28806641 6.12177734 -7.28806641 6.12177734 -8.375 6.25 C-8.705 7.57 -9.035 8.89 -9.375 10.25 C-10.365 10.25 -11.355 10.25 -12.375 10.25 C-12.375 7.28 -12.375 4.31 -12.375 1.25 C-8.23358936 -0.13047021 -4.33798777 0.02605398 0 0 Z M-4.375 22.25 C-5.44181329 26.28865032 -5.79605712 28.38957894 -3.9375 32.1875 C-3.421875 32.868125 -2.90625 33.54875 -2.375 34.25 C1.09 33.755 1.09 33.755 4.625 33.25 C4.625 28.96 4.625 24.67 4.625 20.25 C-1.14387492 19.6952998 -1.14387492 19.6952998 -4.375 22.25 Z " fill="#C8B172" transform="translate(739.375,591.75)"/>
<path d="M0 0 C0.85078125 -0.020625 1.7015625 -0.04125 2.578125 -0.0625 C7.37972869 -0.09241653 10.81411519 -0.0164727 14.625 3.25 C16.79905006 6.63742849 16.92654821 9.57137019 17.0390625 13.546875 C17.09707031 15.35478516 17.09707031 15.35478516 17.15625 17.19921875 C17.1871875 18.45347656 17.218125 19.70773437 17.25 21 C17.30800781 22.90458984 17.30800781 22.90458984 17.3671875 24.84765625 C17.46144222 27.9816257 17.54705166 31.11558949 17.625 34.25 C18.615 34.58 19.605 34.91 20.625 35.25 C20.625 36.24 20.625 37.23 20.625 38.25 C14.625 38.25 8.625 38.25 2.625 38.25 C1.635 38.745 1.635 38.745 0.625 39.25 C-4.26139223 39.6591665 -8.83206511 39.84828088 -13.4375 38.0625 C-15.87955666 35.77799538 -16.65950968 34.54125547 -17.375 31.25 C-17.52774635 26.30820647 -17.11733234 23.18768295 -14 19.25 C-9.8547876 16.09174293 -6.76408198 16.13723681 -1.6875 16.1875 C0.08173828 16.20103516 0.08173828 16.20103516 1.88671875 16.21484375 C2.79035156 16.22644531 3.69398438 16.23804688 4.625 16.25 C4.31717504 14.60328588 4.00360766 12.95764424 3.6875 11.3125 C3.51347656 10.39597656 3.33945312 9.47945312 3.16015625 8.53515625 C2.84785012 6.29710156 2.84785012 6.29710156 1.625 5.25 C-0.06641656 5.33963062 -1.75459602 5.49577676 -3.4375 5.6875 C-4.35660156 5.78933594 -5.27570312 5.89117188 -6.22265625 5.99609375 C-7.28806641 6.12177734 -7.28806641 6.12177734 -8.375 6.25 C-8.705 7.57 -9.035 8.89 -9.375 10.25 C-10.365 10.25 -11.355 10.25 -12.375 10.25 C-12.375 7.28 -12.375 4.31 -12.375 1.25 C-8.23358936 -0.13047021 -4.33798777 0.02605398 0 0 Z M-4.375 22.25 C-5.44181329 26.28865032 -5.79605712 28.38957894 -3.9375 32.1875 C-3.421875 32.868125 -2.90625 33.54875 -2.375 34.25 C1.09 33.755 1.09 33.755 4.625 33.25 C4.625 28.96 4.625 24.67 4.625 20.25 C-1.14387492 19.6952998 -1.14387492 19.6952998 -4.375 22.25 Z " fill="#C8B172" transform="translate(888.375,591.75)"/>
<path d="M0 0 C0.85078125 -0.020625 1.7015625 -0.04125 2.578125 -0.0625 C7.37972869 -0.09241653 10.81411519 -0.0164727 14.625 3.25 C16.79905006 6.63742849 16.92654821 9.57137019 17.0390625 13.546875 C17.09707031 15.35478516 17.09707031 15.35478516 17.15625 17.19921875 C17.1871875 18.45347656 17.218125 19.70773437 17.25 21 C17.30800781 22.90458984 17.30800781 22.90458984 17.3671875 24.84765625 C17.46144222 27.9816257 17.54705166 31.11558949 17.625 34.25 C18.615 34.58 19.605 34.91 20.625 35.25 C20.625 36.24 20.625 37.23 20.625 38.25 C14.625 38.25 8.625 38.25 2.625 38.25 C1.635 38.745 1.635 38.745 0.625 39.25 C-4.26139223 39.6591665 -8.83206511 39.84828088 -13.4375 38.0625 C-15.87955666 35.77799538 -16.65950968 34.54125547 -17.375 31.25 C-17.52774635 26.30820647 -17.11733234 23.18768295 -14 19.25 C-9.8547876 16.09174293 -6.76408198 16.13723681 -1.6875 16.1875 C0.08173828 16.20103516 0.08173828 16.20103516 1.88671875 16.21484375 C2.79035156 16.22644531 3.69398438 16.23804688 4.625 16.25 C4.31717504 14.60328588 4.00360766 12.95764424 3.6875 11.3125 C3.51347656 10.39597656 3.33945312 9.47945312 3.16015625 8.53515625 C2.84785012 6.29710156 2.84785012 6.29710156 1.625 5.25 C-0.06641656 5.33963062 -1.75459602 5.49577676 -3.4375 5.6875 C-4.35660156 5.78933594 -5.27570313 5.89117188 -6.22265625 5.99609375 C-7.28806641 6.12177734 -7.28806641 6.12177734 -8.375 6.25 C-8.705 7.57 -9.035 8.89 -9.375 10.25 C-10.365 10.25 -11.355 10.25 -12.375 10.25 C-12.375 7.28 -12.375 4.31 -12.375 1.25 C-8.23358936 -0.13047021 -4.33798777 0.02605398 0 0 Z M-4.375 22.25 C-5.44181329 26.28865032 -5.79605712 28.38957894 -3.9375 32.1875 C-3.421875 32.868125 -2.90625 33.54875 -2.375 34.25 C1.09 33.755 1.09 33.755 4.625 33.25 C4.625 28.96 4.625 24.67 4.625 20.25 C-1.14387492 19.6952998 -1.14387492 19.6952998 -4.375 22.25 Z " fill="#C8B172" transform="translate(469.375,591.75)"/>
<path d="M0 0 C0.85078125 -0.020625 1.7015625 -0.04125 2.578125 -0.0625 C7.37972869 -0.09241653 10.81411519 -0.0164727 14.625 3.25 C16.79905006 6.63742849 16.92654821 9.57137019 17.0390625 13.546875 C17.09707031 15.35478516 17.09707031 15.35478516 17.15625 17.19921875 C17.1871875 18.45347656 17.218125 19.70773437 17.25 21 C17.30800781 22.90458984 17.30800781 22.90458984 17.3671875 24.84765625 C17.46144222 27.9816257 17.54705166 31.11558949 17.625 34.25 C18.615 34.58 19.605 34.91 20.625 35.25 C20.625 36.24 20.625 37.23 20.625 38.25 C14.625 38.25 8.625 38.25 2.625 38.25 C1.635 38.745 1.635 38.745 0.625 39.25 C-4.26139223 39.6591665 -8.83206511 39.84828088 -13.4375 38.0625 C-15.87955666 35.77799538 -16.65950968 34.54125547 -17.375 31.25 C-17.52774635 26.30820647 -17.11733234 23.18768295 -14 19.25 C-9.8547876 16.09174293 -6.76408198 16.13723681 -1.6875 16.1875 C0.08173828 16.20103516 0.08173828 16.20103516 1.88671875 16.21484375 C2.79035156 16.22644531 3.69398438 16.23804688 4.625 16.25 C4.31717504 14.60328588 4.00360766 12.95764424 3.6875 11.3125 C3.51347656 10.39597656 3.33945312 9.47945312 3.16015625 8.53515625 C2.84785012 6.29710156 2.84785012 6.29710156 1.625 5.25 C-0.06641656 5.33963062 -1.75459602 5.49577676 -3.4375 5.6875 C-4.35660156 5.78933594 -5.27570313 5.89117188 -6.22265625 5.99609375 C-7.28806641 6.12177734 -7.28806641 6.12177734 -8.375 6.25 C-8.705 7.57 -9.035 8.89 -9.375 10.25 C-10.365 10.25 -11.355 10.25 -12.375 10.25 C-12.375 7.28 -12.375 4.31 -12.375 1.25 C-8.23358936 -0.13047021 -4.33798777 0.02605398 0 0 Z M-4.375 22.25 C-5.44181329 26.28865032 -5.79605712 28.38957894 -3.9375 32.1875 C-3.421875 32.868125 -2.90625 33.54875 -2.375 34.25 C1.09 33.755 1.09 33.755 4.625 33.25 C4.625 28.96 4.625 24.67 4.625 20.25 C-1.14387492 19.6952998 -1.14387492 19.6952998 -4.375 22.25 Z " fill="#C8B172" transform="translate(282.375,591.75)"/>
<path d="M0 0 C3.52335293 1.59498723 5.41868275 3.81738896 7.13671875 7.3125 C8.59850153 11.86320838 8.11450808 16.24791484 8 21 C1.73 21 -4.54 21 -11 21 C-10.34 24.63 -9.68 28.26 -9 32 C-3.63505955 32.57999356 1.59689213 33.14218705 7 33 C7 34.32 7 35.64 7 37 C2.91975282 38.9359963 -0.43853306 39.29784538 -4.9375 39.3125 C-6.12214844 39.32925781 -7.30679688 39.34601562 -8.52734375 39.36328125 C-13.4354857 38.84983108 -16.72520958 37.23937958 -20.25 33.8125 C-24.89958145 26.33995838 -24.50816071 18.44349827 -23 10 C-18.2951699 0.0675809 -10.20347892 -1.50394353 0 0 Z M-7 4 C-9.16658535 5.49479421 -9.16658535 5.49479421 -11 8 C-11.35800135 10.75871627 -11.18660165 13.20097524 -11 16 C-8.36 16 -5.72 16 -3 16 C-3.0870005 14.37399059 -3.1951781 12.74910322 -3.3125 11.125 C-3.37050781 10.22007812 -3.42851563 9.31515625 -3.48828125 8.3828125 C-3.7882039 5.63778399 -3.7882039 5.63778399 -7 4 Z " fill="#C8B272" transform="translate(624,592)"/>
<path d="M0 0 C5.28 0 10.56 0 16 0 C16 17.16 16 34.32 16 52 C17.65 52.66 19.3 53.32 21 54 C21 54.66 21 55.32 21 56 C14.07 56 7.14 56 0 56 C0 55.01 0 54.02 0 53 C1.485 52.505 1.485 52.505 3 52 C3 36.16 3 20.32 3 4 C2.01 3.67 1.02 3.34 0 3 C0 2.01 0 1.02 0 0 Z " fill="#C8B272" transform="translate(387,574)"/>
<path d="M0 0 C1.0209375 0.0009668 1.0209375 0.0009668 2.0625 0.00195312 C7.09338846 0.04669423 7.09338846 0.04669423 9.375 1.1875 C9.375 4.4875 9.375 7.7875 9.375 11.1875 C8.055 10.8575 6.735 10.5275 5.375 10.1875 C5.375 8.8675 5.375 7.5475 5.375 6.1875 C2.075 5.8575 -1.225 5.5275 -4.625 5.1875 C-4.955 6.8375 -5.285 8.4875 -5.625 10.1875 C-5.11710938 10.44144531 -4.60921875 10.69539062 -4.0859375 10.95703125 C-2.65416581 11.67291709 -1.22321836 12.39045307 0.20703125 13.109375 C2.0227261 14.01231514 3.8534767 14.88489467 5.6875 15.75 C9.49553206 17.78685436 11.00517133 19.07801399 12.375 23.1875 C12.76834294 28.399294 12.34843088 31.82646805 9.375 36.1875 C4.90695732 38.94659789 1.52736612 39.57376851 -3.6875 39.5 C-4.87472656 39.49613281 -6.06195312 39.49226562 -7.28515625 39.48828125 C-10.48104527 39.20046434 -12.74488582 38.55405701 -15.625 37.1875 C-15.625 33.8875 -15.625 30.5875 -15.625 27.1875 C-14.305 27.1875 -12.985 27.1875 -11.625 27.1875 C-11.315625 28.156875 -11.00625 29.12625 -10.6875 30.125 C-9.00541274 33.31500645 -9.00541274 33.31500645 -6.4921875 33.84375 C-1.92120539 34.45608243 -1.92120539 34.45608243 2.375 33.1875 C2.375 31.5375 2.375 29.8875 2.375 28.1875 C1.86710938 27.93355469 1.35921875 27.67960938 0.8359375 27.41796875 C-0.59844355 26.70077822 -2.03062254 25.97917196 -3.4609375 25.25390625 C-5.2367246 24.37883427 -7.05177074 23.58386623 -8.875 22.8125 C-12.39547197 20.73222111 -13.80021212 18.83707575 -15.625 15.1875 C-16.24758999 10.82937005 -15.93801399 8.77999076 -13.875 4.875 C-9.79602651 0.00289277 -6.126246 -0.11149298 0 0 Z " fill="#C8B172" transform="translate(660.625,591.8125)"/>
<path d="M0 0 C1.0209375 0.0009668 1.0209375 0.0009668 2.0625 0.00195312 C7.09338846 0.04669423 7.09338846 0.04669423 9.375 1.1875 C9.375 4.4875 9.375 7.7875 9.375 11.1875 C8.055 10.8575 6.735 10.5275 5.375 10.1875 C5.375 8.8675 5.375 7.5475 5.375 6.1875 C2.075 5.8575 -1.225 5.5275 -4.625 5.1875 C-4.955 6.8375 -5.285 8.4875 -5.625 10.1875 C-5.11710937 10.44144531 -4.60921875 10.69539062 -4.0859375 10.95703125 C-2.65416581 11.67291709 -1.22321836 12.39045307 0.20703125 13.109375 C2.0227261 14.01231514 3.8534767 14.88489467 5.6875 15.75 C9.49553206 17.78685436 11.00517133 19.07801399 12.375 23.1875 C12.76834294 28.399294 12.34843088 31.82646805 9.375 36.1875 C4.90695732 38.94659789 1.52736612 39.57376851 -3.6875 39.5 C-4.87472656 39.49613281 -6.06195313 39.49226562 -7.28515625 39.48828125 C-10.48104527 39.20046434 -12.74488582 38.55405701 -15.625 37.1875 C-15.625 33.8875 -15.625 30.5875 -15.625 27.1875 C-14.305 27.1875 -12.985 27.1875 -11.625 27.1875 C-11.315625 28.156875 -11.00625 29.12625 -10.6875 30.125 C-9.00541274 33.31500645 -9.00541274 33.31500645 -6.4921875 33.84375 C-1.92120539 34.45608243 -1.92120539 34.45608243 2.375 33.1875 C2.375 31.5375 2.375 29.8875 2.375 28.1875 C1.86710937 27.93355469 1.35921875 27.67960938 0.8359375 27.41796875 C-0.59844355 26.70077822 -2.03062254 25.97917196 -3.4609375 25.25390625 C-5.2367246 24.37883427 -7.05177074 23.58386623 -8.875 22.8125 C-12.39547197 20.73222111 -13.80021212 18.83707575 -15.625 15.1875 C-16.24758999 10.82937005 -15.93801399 8.77999076 -13.875 4.875 C-9.79602651 0.00289277 -6.126246 -0.11149298 0 0 Z " fill="#C8B172" transform="translate(330.625,591.8125)"/>
<path d="M0 0 C0 4.62 0 9.24 0 14 C-1.32 14 -2.64 14 -4 14 C-4.33 12.35 -4.66 10.7 -5 9 C-8.63 9.99 -12.26 10.98 -16 12 C-16 19.26 -16 26.52 -16 34 C-14.02 34.33 -12.04 34.66 -10 35 C-10 35.99 -10 36.98 -10 38 C-17.59 38 -25.18 38 -33 38 C-33 37.01 -33 36.02 -33 35 C-30.525 34.505 -30.525 34.505 -28 34 C-28 24.43 -28 14.86 -28 5 C-29.65 4.67 -31.3 4.34 -33 4 C-33 3.01 -33 2.02 -33 1 C-27.72 1 -22.44 1 -17 1 C-16.67 2.65 -16.34 4.3 -16 6 C-15.43152344 5.566875 -14.86304688 5.13375 -14.27734375 4.6875 C-13.50519531 4.130625 -12.73304688 3.57375 -11.9375 3 C-10.80634766 2.1646875 -10.80634766 2.1646875 -9.65234375 1.3125 C-7 0 -7 0 0 0 Z " fill="#C8B272" transform="translate(859,592)"/>
<path d="M0 0 C3.625 -0.1875 3.625 -0.1875 7 0 C7 2.64 7 5.28 7 8 C9.64 8 12.28 8 15 8 C14.67 9.65 14.34 11.3 14 13 C11.69 13 9.38 13 7 13 C7.33 21.58 7.66 30.16 8 39 C12.64045375 40.09805807 12.64045375 40.09805807 16 40 C15.625 42.4375 15.625 42.4375 15 45 C12.30335792 46.34832104 10.13412479 46.16910682 7.125 46.1875 C6.07570313 46.20167969 5.02640625 46.21585938 3.9453125 46.23046875 C1.00617075 46.00048286 -0.57716797 45.63514 -3 44 C-5.39112209 40.41331687 -5.23381027 38.83603431 -5.1953125 34.58203125 C-5.18564453 32.70161133 -5.18564453 32.70161133 -5.17578125 30.78320312 C-5.15902344 29.47287109 -5.14226563 28.16253906 -5.125 26.8125 C-5.11496639 25.47722013 -5.1058412 24.14193311 -5.09765625 22.80664062 C-5.07405292 19.53757985 -5.04112594 16.26887972 -5 13 C-6.65 12.67 -8.3 12.34 -10 12 C-10 11.01 -10 10.02 -10 9 C-9.05125 8.938125 -8.1025 8.87625 -7.125 8.8125 C-6.09375 8.544375 -5.0625 8.27625 -4 8 C-2.66096786 5.65245602 -2.66096786 5.65245602 -2 3 C-1.34 2.01 -0.68 1.02 0 0 Z " fill="#C8B272" transform="translate(984,585)"/>
<path d="M0 0 C3.625 -0.1875 3.625 -0.1875 7 0 C7 2.64 7 5.28 7 8 C9.64 8 12.28 8 15 8 C14.67 9.65 14.34 11.3 14 13 C11.69 13 9.38 13 7 13 C7.33 21.58 7.66 30.16 8 39 C12.64045375 40.09805807 12.64045375 40.09805807 16 40 C15.625 42.4375 15.625 42.4375 15 45 C12.30335792 46.34832104 10.13412479 46.16910682 7.125 46.1875 C6.07570313 46.20167969 5.02640625 46.21585938 3.9453125 46.23046875 C1.00617075 46.00048286 -0.57716797 45.63514 -3 44 C-5.39112209 40.41331687 -5.23381027 38.83603431 -5.1953125 34.58203125 C-5.18564453 32.70161133 -5.18564453 32.70161133 -5.17578125 30.78320312 C-5.15902344 29.47287109 -5.14226563 28.16253906 -5.125 26.8125 C-5.11496639 25.47722013 -5.1058412 24.14193311 -5.09765625 22.80664062 C-5.07405292 19.53757985 -5.04112594 16.26887972 -5 13 C-6.65 12.67 -8.3 12.34 -10 12 C-10 11.01 -10 10.02 -10 9 C-9.05125 8.938125 -8.1025 8.87625 -7.125 8.8125 C-6.09375 8.544375 -5.0625 8.27625 -4 8 C-2.66096786 5.65245602 -2.66096786 5.65245602 -2 3 C-1.34 2.01 -0.68 1.02 0 0 Z " fill="#C8B272" transform="translate(695,585)"/>
<path d="M0 0 C5.28 0 10.56 0 16 0 C16.33 10.89 16.66 21.78 17 33 C18.485 33.495 18.485 33.495 20 34 C20 34.99 20 35.98 20 37 C13.07 37 6.14 37 -1 37 C-1 36.01 -1 35.02 -1 34 C0.485 33.505 0.485 33.505 2 33 C2 23.43 2 13.86 2 4 C1.34 3.67 0.68 3.34 0 3 C0 2.01 0 1.02 0 0 Z " fill="#C8B272" transform="translate(420,593)"/>
<path d="M0 0 C5.28 0 10.56 0 16 0 C16.33 10.89 16.66 21.78 17 33 C18.485 33.495 18.485 33.495 20 34 C20 34.99 20 35.98 20 37 C13.07 37 6.14 37 -1 37 C-1 36.01 -1 35.02 -1 34 C0.485 33.505 0.485 33.505 2 33 C2 23.43 2 13.86 2 4 C1.34 3.67 0.68 3.34 0 3 C0 2.01 0 1.02 0 0 Z " fill="#C8B272" transform="translate(356,593)"/>
<path d="M0 0 C0.66 0.66 1.32 1.32 2 2 C1.53846154 8.46153846 1.53846154 8.46153846 -1 11 C-4.4375 11.375 -4.4375 11.375 -8 11 C-10.42061048 8.89172636 -10.9127007 7.59654522 -11.375 4.4375 C-10.93061172 1.54897621 -10.3218356 0.71987822 -8 -1 C-4.34765818 -2.21744727 -3.37046678 -1.64202228 0 0 Z " fill="#C8B272" transform="translate(434,575)"/>
<path d="M0 0 C0.66 0.66 1.32 1.32 2 2 C1.53846154 8.46153846 1.53846154 8.46153846 -1 11 C-4.4375 11.375 -4.4375 11.375 -8 11 C-10.42061048 8.89172636 -10.9127007 7.59654522 -11.375 4.4375 C-10.93061172 1.54897621 -10.3218356 0.71987822 -8 -1 C-4.34765818 -2.21744727 -3.37046678 -1.64202228 0 0 Z " fill="#C8B272" transform="translate(370,575)"/>
</svg>
